<svg width="800" height="800" viewBox="0 0 800 800" fill="none" xmlns="http://www.w3.org/2000/svg">
<path fill-rule="evenodd" clip-rule="evenodd" d="M245.861 161.972C288.516 120.657 339.897 100 400 100C460.103 100 511.24 120.422 553.41 161.268C595.583 202.113 616.667 251.643 616.667 309.859C616.667 338.967 609.153 372.3 594.127 409.86C579.1 447.417 560.923 482.63 539.597 515.493C518.27 548.357 497.187 579.107 476.343 607.747C455.5 636.387 437.807 659.153 423.267 676.057L400 700C394.183 693.427 386.427 684.743 376.733 673.943C367.04 663.147 349.59 641.55 324.385 609.153C299.18 576.76 277.125 545.307 258.221 514.79C239.318 484.273 222.11 449.767 206.6 411.267C191.089 372.77 183.333 338.967 183.333 309.859C183.333 251.643 204.176 202.348 245.861 161.972Z" stroke="#D6111E" stroke-width="66.6667" stroke-linecap="round" stroke-linejoin="round"/>
<path d="M433.333 316.667C433.333 335.077 418.41 350 400 350C381.59 350 366.667 335.077 366.667 316.667C366.667 298.257 381.59 283.333 400 283.333C418.41 283.333 433.333 298.257 433.333 316.667Z" stroke="#D6111E" stroke-width="66.6667" stroke-linecap="round" stroke-linejoin="round"/>
</svg>
