<svg width="162" height="51" viewBox="0 0 162 51" fill="none" xmlns="http://www.w3.org/2000/svg">
<g clip-path="url(#clip0_180_205)">
<g clip-path="url(#clip1_180_205)">
<g clip-path="url(#clip2_180_205)">
<g clip-path="url(#clip3_180_205)">
<g clip-path="url(#clip4_180_205)">
<path d="M160.531 27.8271H54.4071C53.809 27.8271 53.3242 28.1364 53.3242 28.5179C53.3242 28.8995 53.809 29.2087 54.4071 29.2087H160.531C161.129 29.2087 161.614 28.8995 161.614 28.5179C161.614 28.1364 161.129 27.8271 160.531 27.8271Z" fill="white"/>
<g clip-path="url(#clip5_180_205)">
<g clip-path="url(#clip6_180_205)">
<path d="M58.2432 23.9467C58.2432 24.1819 58.2801 24.3789 58.3537 24.5376C58.4246 24.6963 58.528 24.8252 58.6641 24.9244C58.8001 25.0208 58.9659 25.0888 59.1614 25.1285C59.3598 25.171 59.5794 25.1922 59.8203 25.1922C59.877 25.1922 59.9053 25.2206 59.9053 25.2772V25.8341C59.9053 25.8568 59.9011 25.8766 59.8926 25.8936C59.8869 25.9106 59.8628 25.9191 59.8203 25.9191H53.6862C53.6522 25.9191 53.6296 25.9092 53.6182 25.8894C53.6097 25.8667 53.6055 25.8483 53.6055 25.8341V25.2772C53.6055 25.2631 53.6097 25.2447 53.6182 25.222C53.6296 25.2021 53.6522 25.1922 53.6862 25.1922C53.93 25.1922 54.1496 25.1766 54.3451 25.1455C54.5435 25.1143 54.7121 25.0477 54.851 24.9457C54.9899 24.8408 55.0961 24.692 55.1698 24.4993C55.2463 24.3038 55.2846 24.0402 55.2846 23.7087V13.2557C55.2846 13.0204 55.2492 12.8235 55.1783 12.6648C55.1046 12.5061 54.9998 12.3786 54.8637 12.2822C54.7305 12.1858 54.5648 12.1164 54.3664 12.0739C54.1708 12.0342 53.9512 12.0144 53.7075 12.0144C53.6536 12.0144 53.6267 11.9861 53.6267 11.9294V11.3683C53.6267 11.3144 53.6536 11.2875 53.7075 11.2875H59.8416C59.8756 11.2875 59.8982 11.2974 59.9096 11.3172C59.9209 11.3371 59.9266 11.3541 59.9266 11.3683V11.9294C59.9266 11.9435 59.9209 11.9605 59.9096 11.9804C59.8982 12.0031 59.8756 12.0144 59.8416 12.0144C59.6007 12.0144 59.381 12.03 59.1827 12.0612C58.9843 12.0895 58.8171 12.1561 58.6811 12.2609C58.5422 12.3658 58.4345 12.5146 58.358 12.7073C58.2815 12.9 58.2432 13.1636 58.2432 13.498V23.9467ZM61.1253 25.8341V25.3793C61.1253 25.3651 61.131 25.3481 61.1423 25.3283C61.1537 25.3084 61.1763 25.2985 61.2104 25.2985C61.6666 25.2985 62.0209 25.2447 62.2731 25.137C62.5253 25.0293 62.7123 24.8805 62.8342 24.6906C62.9561 24.5007 63.0312 24.274 63.0595 24.0105C63.085 23.7469 63.1048 23.4635 63.119 23.1603C63.1615 22.2676 63.2125 21.4004 63.2721 20.5587C63.3287 19.717 63.3854 18.891 63.4421 18.0804C63.4959 17.2671 63.5441 16.4623 63.5866 15.6659C63.6291 14.8696 63.6504 14.0704 63.6504 13.2684V12.8858C63.6504 12.7243 63.598 12.584 63.4931 12.465C63.3911 12.3431 63.2678 12.2411 63.1233 12.1589C62.9816 12.0739 62.8385 12.0116 62.6939 11.9719C62.5494 11.9294 62.436 11.9081 62.3539 11.9081C62.2972 11.9081 62.2688 11.8812 62.2688 11.8273V11.3683C62.2688 11.3541 62.2717 11.3371 62.2773 11.3172C62.2858 11.2974 62.3113 11.2875 62.3539 11.2875H66.0266C66.1032 11.2988 66.1655 11.3243 66.2137 11.364C66.2619 11.4008 66.3072 11.4504 66.3497 11.5128L70.8642 21.5789C70.9124 21.698 70.9733 21.7575 71.047 21.7575C71.1235 21.7575 71.1802 21.7405 71.217 21.7065C71.251 21.6725 71.2779 21.6271 71.2978 21.5704L75.7612 11.6998C75.8293 11.5695 75.8987 11.4674 75.9695 11.3938C76.0376 11.3229 76.107 11.2875 76.1778 11.2875H79.8294C79.8719 11.2875 79.896 11.2974 79.9016 11.3172C79.9073 11.3371 79.9101 11.3541 79.9101 11.3683V11.8273C79.9101 11.8387 79.9059 11.8557 79.8974 11.8784C79.886 11.8982 79.8634 11.9081 79.8294 11.9081C79.8152 11.9081 79.7344 11.9223 79.5871 11.9506C79.4369 11.979 79.2739 12.0328 79.0982 12.1122C78.9225 12.1915 78.761 12.3049 78.6136 12.4522C78.4691 12.6024 78.3968 12.798 78.3968 13.0389L79.0004 24.0912C79.0061 24.2925 79.0585 24.4625 79.1577 24.6014C79.2597 24.7402 79.383 24.855 79.5276 24.9457C79.6721 25.0335 79.8265 25.1001 79.9909 25.1455C80.1524 25.1908 80.3041 25.2262 80.4458 25.2517C80.5874 25.2744 80.7093 25.2872 80.8113 25.29C80.9105 25.2957 80.9629 25.2985 80.9686 25.2985C81.0055 25.2985 81.0281 25.3084 81.0366 25.3283C81.048 25.3481 81.0536 25.3651 81.0536 25.3793V25.8341C81.0536 25.8483 81.048 25.8667 81.0366 25.8894C81.0281 25.9092 81.0055 25.9191 80.9686 25.9191H74.1416C74.085 25.9191 74.0566 25.8908 74.0566 25.8341V25.3793C74.0566 25.3254 74.085 25.2985 74.1416 25.2985C74.3088 25.2985 74.4973 25.2886 74.707 25.2687C74.9196 25.2517 75.1222 25.2121 75.3149 25.1497C75.5076 25.0874 75.6706 24.9967 75.8038 24.8777C75.9341 24.7558 75.9993 24.5943 75.9993 24.3931L75.5232 15.9125C75.5147 15.8445 75.4977 15.8105 75.4722 15.8105C75.4438 15.8105 75.4155 15.8416 75.3872 15.904L70.8429 25.7406C70.8061 25.8171 70.7593 25.8667 70.7027 25.8894C70.6431 25.9092 70.5411 25.9191 70.3966 25.9191C70.1472 25.9191 69.9616 25.912 69.8397 25.8979C69.7179 25.8837 69.6371 25.8284 69.5974 25.7321L65.1765 15.989C65.1538 15.938 65.1382 15.9011 65.1297 15.8785C65.1184 15.853 65.0985 15.8402 65.0702 15.8402C65.022 15.8402 64.9979 15.8856 64.9979 15.9762C64.9979 16.1831 64.988 16.4878 64.9682 16.8902C64.9455 17.2926 64.9172 17.7446 64.8831 18.2462C64.8491 18.7478 64.8151 19.2778 64.7811 19.8361C64.7471 20.3972 64.7117 20.9413 64.6749 21.4684C64.6408 21.9927 64.6139 22.4816 64.5941 22.935C64.5742 23.3884 64.5643 23.7611 64.5643 24.053V24.4781C64.5898 24.6084 64.6578 24.726 64.7684 24.8309C64.8789 24.9329 65.0178 25.0194 65.185 25.0902C65.3522 25.1582 65.535 25.2092 65.7333 25.2432C65.9345 25.2801 66.1457 25.2985 66.3667 25.2985C66.4036 25.2985 66.4234 25.3084 66.4262 25.3283C66.4291 25.3481 66.4305 25.3651 66.4305 25.3793V25.8341C66.4305 25.8908 66.4092 25.9191 66.3667 25.9191H61.2104C61.1537 25.9191 61.1253 25.8908 61.1253 25.8341ZM82.6817 18.48C82.6817 17.78 82.7753 17.1084 82.9623 16.4651C83.1493 15.8218 83.4129 15.2182 83.753 14.6542C84.0902 14.0903 84.4955 13.5787 84.9687 13.1196C85.4448 12.6577 85.9663 12.2609 86.5331 11.9294C87.0999 11.5978 87.7063 11.3413 88.3525 11.16C89.0014 10.9814 89.6674 10.8921 90.3504 10.8921C90.7188 10.8921 91.0929 10.9148 91.4726 10.9602C91.8524 11.0055 92.2236 11.0622 92.5864 11.1302C92.9519 11.1982 93.2963 11.2747 93.6193 11.3597C93.9452 11.4419 94.2315 11.517 94.478 11.585C94.7217 11.6559 94.9215 11.714 95.0774 11.7593C95.2333 11.8047 95.3225 11.8273 95.3452 11.8273H95.4685C95.5223 11.8273 95.5648 11.8217 95.596 11.8103C95.6272 11.799 95.6555 11.7863 95.681 11.7721C95.7037 11.7579 95.7292 11.7466 95.7576 11.7381C95.7859 11.7267 95.8284 11.7211 95.8851 11.7211H96.2974C96.3116 11.7211 96.3343 11.7267 96.3654 11.7381C96.3966 11.7466 96.4122 11.7792 96.4122 11.8359V15.2918C96.4122 15.3684 96.3796 15.4208 96.3144 15.4491C96.2492 15.4746 96.1926 15.4874 96.1444 15.4874C96.082 15.4817 96.0254 15.4477 95.9744 15.3854C95.9262 15.323 95.8822 15.2536 95.8426 15.1771C95.8001 15.1006 95.7646 15.0283 95.7363 14.9603C95.7108 14.8894 95.6938 14.837 95.6853 14.803C95.5124 14.2645 95.2687 13.8097 94.9541 13.4384C94.6396 13.07 94.2697 12.7682 93.8446 12.533C93.4195 12.2978 92.9519 12.1277 92.4418 12.0229C91.9346 11.918 91.4004 11.8656 90.8392 11.8656C89.8785 11.8656 89.0765 12.0427 88.4332 12.397C87.7899 12.7484 87.2727 13.2216 86.8816 13.8168C86.4906 14.4119 86.2128 15.0991 86.0485 15.8785C85.8869 16.6578 85.8062 17.4754 85.8062 18.3312C85.8062 18.9207 85.8643 19.4988 85.9804 20.0656C86.0995 20.6324 86.2681 21.1709 86.4863 21.681C86.7045 22.1882 86.9695 22.6544 87.2812 23.0795C87.5901 23.5046 87.9373 23.8716 88.3227 24.1805C88.7053 24.4894 89.1205 24.7303 89.5682 24.9032C90.0131 25.076 90.485 25.1625 90.9838 25.1625C91.5449 25.1625 92.038 25.1015 92.4631 24.9797C92.8882 24.8578 93.2325 24.6212 93.4961 24.2698V21.9743C93.4961 21.6767 93.4592 21.4117 93.3855 21.1794C93.3147 20.9498 93.1815 20.7557 92.986 20.597C92.7932 20.4355 92.5311 20.3136 92.1995 20.2314C91.868 20.1492 91.4429 20.1081 90.9243 20.1081C90.8818 20.1081 90.852 20.0685 90.835 19.9891C90.818 19.9098 90.8095 19.8417 90.8095 19.7851C90.8095 19.7511 90.818 19.693 90.835 19.6108C90.852 19.5258 90.8818 19.4832 90.9243 19.4832H98.1466C98.2004 19.4832 98.233 19.5229 98.2443 19.6023C98.2557 19.6816 98.2613 19.7426 98.2613 19.7851C98.2613 19.8191 98.2543 19.8743 98.2401 19.9508C98.2259 20.0274 98.1947 20.0798 98.1466 20.1081C97.9595 20.1846 97.7668 20.2498 97.5684 20.3037C97.3729 20.3604 97.1915 20.4326 97.0243 20.5205C96.8571 20.6112 96.7211 20.7344 96.6162 20.8903C96.5085 21.0462 96.4547 21.2587 96.4547 21.5279V24.5588C96.4547 24.6155 96.432 24.6609 96.3867 24.6949C96.3413 24.7289 96.2705 24.7671 96.1741 24.8096C95.7859 24.9967 95.3466 25.1724 94.8564 25.3368C94.3633 25.504 93.8574 25.6513 93.3388 25.7789C92.8202 25.9064 92.3058 26.0084 91.7957 26.0849C91.2828 26.1614 90.8152 26.1997 90.3929 26.1997C89.3217 26.1997 88.3185 26.0212 87.3832 25.6641C86.448 25.307 85.6319 24.7955 84.9347 24.1295C84.2347 23.4607 83.6849 22.6488 83.2854 21.6937C82.8829 20.7387 82.6817 19.6675 82.6817 18.48ZM105.088 12.8731C105.088 12.7285 105.059 12.6478 104.999 12.6308C104.94 12.6138 104.869 12.5982 104.786 12.584H101.267C101.012 12.6379 100.812 12.7399 100.667 12.8901C100.52 13.0374 100.405 13.2117 100.323 13.4129C100.241 13.6142 100.179 13.8309 100.136 14.0633C100.096 14.2929 100.052 14.5153 100.004 14.7307C99.99 14.7931 99.9759 14.8682 99.9617 14.956C99.9475 15.041 99.9334 15.0906 99.9192 15.1048C99.905 15.1246 99.8809 15.1346 99.8469 15.1346H99.5026C99.4629 15.1346 99.4431 15.1218 99.4431 15.0963V14.752L99.8257 11.2025C99.8398 11.1259 99.871 11.0537 99.9192 10.9857C99.9674 10.9148 100.044 10.8794 100.149 10.8794C100.197 10.8794 100.244 10.8936 100.289 10.9219C100.334 10.9502 100.377 10.9828 100.417 11.0197C100.459 11.0594 100.499 11.0962 100.536 11.1302C100.575 11.1642 100.615 11.1883 100.655 11.2025C100.74 11.2365 100.818 11.2591 100.888 11.2705C100.962 11.2818 101.044 11.2875 101.135 11.2875H112.009C112.099 11.2875 112.182 11.2818 112.255 11.2705C112.326 11.2591 112.404 11.2365 112.489 11.2025C112.529 11.1883 112.569 11.1642 112.608 11.1302C112.645 11.0962 112.685 11.0594 112.727 11.0197C112.767 10.9828 112.809 10.9502 112.855 10.9219C112.9 10.8936 112.947 10.8794 112.995 10.8794C113.1 10.8794 113.176 10.9148 113.225 10.9857C113.273 11.0537 113.304 11.1259 113.318 11.2025L113.701 14.752V15.0963C113.701 15.1218 113.681 15.1346 113.641 15.1346H113.297C113.263 15.1346 113.239 15.1246 113.225 15.1048C113.21 15.0906 113.196 15.041 113.182 14.956C113.168 14.8682 113.154 14.7931 113.14 14.7307C113.091 14.5153 113.047 14.2929 113.008 14.0633C112.965 13.8309 112.903 13.6142 112.821 13.4129C112.736 13.2117 112.621 13.0374 112.476 12.8901C112.332 12.7399 112.131 12.6379 111.873 12.584H108.345C108.262 12.5982 108.191 12.6138 108.132 12.6308C108.075 12.6478 108.047 12.7285 108.047 12.8731V23.8957C108.047 24.1026 108.098 24.2882 108.2 24.4526C108.305 24.6141 108.445 24.7572 108.621 24.8819C108.797 25.0066 109.005 25.1072 109.246 25.1837C109.484 25.2602 109.737 25.3113 110.007 25.3368C110.083 25.3453 110.179 25.3495 110.296 25.3495C110.415 25.3495 110.515 25.3495 110.598 25.3495C110.632 25.3495 110.654 25.3594 110.666 25.3793C110.677 25.3991 110.683 25.4161 110.683 25.4303V25.8341C110.683 25.8483 110.677 25.8667 110.666 25.8894C110.654 25.9092 110.632 25.9191 110.598 25.9191H102.534C102.5 25.9191 102.477 25.9092 102.465 25.8894C102.457 25.8667 102.453 25.8483 102.453 25.8341V25.4303C102.453 25.4161 102.457 25.3991 102.465 25.3793C102.477 25.3594 102.5 25.3495 102.534 25.3495C102.61 25.3495 102.709 25.3495 102.831 25.3495C102.953 25.3495 103.051 25.3453 103.124 25.3368C103.396 25.3113 103.652 25.2602 103.89 25.1837C104.128 25.1072 104.334 25.0066 104.51 24.8819C104.689 24.7572 104.829 24.6141 104.931 24.4526C105.036 24.2882 105.088 24.1026 105.088 23.8957V12.8731ZM114.436 25.6896V25.3878C114.436 25.3821 114.44 25.3679 114.449 25.3453C114.454 25.3198 114.479 25.307 114.521 25.307H114.746C115.038 25.2872 115.336 25.2744 115.639 25.2687C115.945 25.2659 116.223 25.2291 116.472 25.1582C116.722 25.0845 116.926 24.9556 117.084 24.7714C117.243 24.59 117.322 24.3052 117.322 23.917V13.2897C117.322 13.0204 117.267 12.8008 117.157 12.6308C117.046 12.4607 116.9 12.3233 116.719 12.2184C116.54 12.1164 116.336 12.0385 116.107 11.9846C115.88 11.9336 115.649 11.8911 115.414 11.8571H115.193C115.159 11.8571 115.137 11.8472 115.129 11.8273C115.118 11.8047 115.112 11.7863 115.112 11.7721V11.3683C115.112 11.3541 115.118 11.3371 115.129 11.3172C115.137 11.2974 115.159 11.2875 115.193 11.2875H125.531C125.656 11.2875 125.746 11.3087 125.803 11.3512C125.857 11.3966 125.891 11.4958 125.905 11.6488L126.092 14.9688C126.092 15.0056 126.062 15.0325 126.003 15.0495C125.943 15.0665 125.889 15.075 125.841 15.075C125.787 15.075 125.732 15.068 125.676 15.0538C125.622 15.0396 125.583 15.0184 125.561 14.99C125.513 14.922 125.479 14.82 125.459 14.684C125.439 14.5508 125.416 14.4006 125.391 14.2334C125.368 14.0662 125.334 13.8933 125.289 13.7148C125.243 13.5334 125.175 13.3676 125.085 13.2174C124.994 13.0644 124.871 12.9312 124.715 12.8178C124.562 12.7016 124.363 12.6237 124.12 12.584H120.417C120.326 12.584 120.281 12.6294 120.281 12.72V17.6681C120.281 17.7361 120.315 17.7701 120.383 17.7701H123.35C123.523 17.7701 123.695 17.7489 123.865 17.7064C124.035 17.661 124.183 17.5788 124.311 17.4598C124.438 17.3436 124.542 17.1793 124.621 16.9667C124.703 16.757 124.745 16.4864 124.745 16.1548C124.745 16.0981 124.771 16.0698 124.825 16.0698H125.229C125.286 16.0698 125.314 16.0981 125.314 16.1548V20.9073C125.314 20.9413 125.304 20.964 125.284 20.9753C125.262 20.9838 125.243 20.9881 125.229 20.9881H124.825C124.791 20.9881 124.769 20.9782 124.757 20.9583C124.749 20.9385 124.745 20.9215 124.745 20.9073C124.745 20.5191 124.703 20.2059 124.621 19.9679C124.542 19.7298 124.437 19.5428 124.307 19.4067C124.176 19.2707 124.026 19.1814 123.856 19.1389C123.686 19.0936 123.508 19.0709 123.32 19.0709H120.383C120.315 19.0709 120.281 19.1049 120.281 19.1729V23.7087C120.281 23.9099 120.312 24.0714 120.375 24.1933C120.437 24.3123 120.522 24.403 120.63 24.4653C120.735 24.5277 120.856 24.5688 120.995 24.5886C121.134 24.6113 121.28 24.6226 121.433 24.6226H124.264C124.667 24.6226 125.002 24.5305 125.272 24.3463C125.541 24.1621 125.759 23.9396 125.926 23.6789C126.091 23.4153 126.214 23.1419 126.296 22.8585C126.375 22.5751 126.425 22.3328 126.445 22.1316C126.459 22.0409 126.504 21.97 126.581 21.919C126.657 21.868 126.744 21.8425 126.84 21.8425C126.874 21.8425 126.915 21.8553 126.964 21.8808C127.012 21.9091 127.036 21.9403 127.036 21.9743L126.696 25.7746C126.682 25.8086 126.662 25.8412 126.636 25.8724C126.614 25.9035 126.584 25.9191 126.547 25.9191H114.521C114.479 25.9191 114.454 25.9064 114.449 25.8809C114.44 25.8582 114.436 25.8426 114.436 25.8341V25.6896ZM128.218 25.8341V25.3793C128.218 25.3651 128.223 25.3481 128.235 25.3283C128.246 25.3084 128.269 25.2985 128.303 25.2985C128.759 25.2985 129.113 25.2447 129.365 25.137C129.618 25.0293 129.805 24.8805 129.926 24.6906C130.048 24.5007 130.122 24.274 130.147 24.0105C130.176 23.7469 130.197 23.4635 130.211 23.1603C130.254 22.2676 130.303 21.4004 130.36 20.5587C130.42 19.717 130.478 18.891 130.534 18.0804C130.588 17.2671 130.636 16.4623 130.679 15.6659C130.718 14.8696 130.738 14.0704 130.738 13.2684V12.8858C130.738 12.7243 130.687 12.584 130.585 12.465C130.48 12.3431 130.357 12.2411 130.215 12.1589C130.074 12.0739 129.931 12.0116 129.786 11.9719C129.642 11.9294 129.527 11.9081 129.442 11.9081C129.388 11.9081 129.361 11.8812 129.361 11.8273V11.3683C129.361 11.3541 129.364 11.3371 129.37 11.3172C129.378 11.2974 129.402 11.2875 129.442 11.2875H133.119C133.193 11.2988 133.253 11.3243 133.302 11.364C133.353 11.4008 133.398 11.4504 133.438 11.5128L137.952 21.5789C138 21.698 138.063 21.7575 138.139 21.7575C138.216 21.7575 138.271 21.7405 138.305 21.7065C138.339 21.6725 138.367 21.6271 138.39 21.5704L142.853 11.6998C142.921 11.5695 142.989 11.4674 143.057 11.3938C143.128 11.3229 143.198 11.2875 143.266 11.2875H146.922C146.961 11.2875 146.985 11.2974 146.994 11.3172C147 11.3371 147.002 11.3541 147.002 11.3683V11.8273C147.002 11.8387 146.997 11.8557 146.985 11.8784C146.977 11.8982 146.956 11.9081 146.922 11.9081C146.907 11.9081 146.825 11.9223 146.675 11.9506C146.528 11.979 146.365 12.0328 146.186 12.1122C146.01 12.1915 145.85 12.3049 145.706 12.4522C145.561 12.6024 145.489 12.798 145.489 13.0389L146.088 24.0912C146.097 24.2925 146.151 24.4625 146.25 24.6014C146.352 24.7402 146.475 24.855 146.62 24.9457C146.764 25.0335 146.917 25.1001 147.079 25.1455C147.243 25.1908 147.396 25.2262 147.538 25.2517C147.68 25.2744 147.8 25.2872 147.899 25.29C148.001 25.2957 148.055 25.2985 148.061 25.2985C148.095 25.2985 148.118 25.3084 148.129 25.3283C148.14 25.3481 148.146 25.3651 148.146 25.3793V25.8341C148.146 25.8483 148.14 25.8667 148.129 25.8894C148.118 25.9092 148.095 25.9191 148.061 25.9191H141.234C141.177 25.9191 141.149 25.8908 141.149 25.8341V25.3793C141.149 25.3254 141.177 25.2985 141.234 25.2985C141.398 25.2985 141.587 25.2886 141.799 25.2687C142.009 25.2517 142.212 25.2121 142.407 25.1497C142.6 25.0874 142.761 24.9967 142.892 24.8777C143.025 24.7558 143.092 24.5943 143.092 24.3931L142.611 15.9125C142.605 15.8445 142.588 15.8105 142.56 15.8105C142.532 15.8105 142.505 15.8416 142.479 15.904L137.931 25.7406C137.897 25.8171 137.85 25.8667 137.791 25.8894C137.734 25.9092 137.632 25.9191 137.485 25.9191C137.235 25.9191 137.051 25.912 136.932 25.8979C136.81 25.8837 136.728 25.8284 136.685 25.7321L132.264 15.989C132.245 15.938 132.229 15.9011 132.218 15.8785C132.209 15.853 132.191 15.8402 132.162 15.8402C132.114 15.8402 132.09 15.8856 132.09 15.9762C132.09 16.1831 132.08 16.4878 132.06 16.8902C132.038 17.2926 132.009 17.7446 131.975 18.2462C131.941 18.7478 131.907 19.2778 131.873 19.8361C131.836 20.3972 131.801 20.9413 131.767 21.4684C131.733 21.9927 131.706 22.4816 131.686 22.935C131.664 23.3884 131.652 23.7611 131.652 24.053V24.4781C131.681 24.6084 131.75 24.726 131.861 24.8309C131.971 24.9329 132.11 25.0194 132.277 25.0902C132.442 25.1582 132.624 25.2092 132.826 25.2432C133.027 25.2801 133.238 25.2985 133.459 25.2985C133.493 25.2985 133.513 25.3084 133.518 25.3283C133.521 25.3481 133.523 25.3651 133.523 25.3793V25.8341C133.523 25.8908 133.501 25.9191 133.459 25.9191H128.303C128.246 25.9191 128.218 25.8908 128.218 25.8341ZM156.758 25.9191H149.617C149.563 25.9191 149.536 25.8851 149.536 25.8171V25.3793C149.536 25.3736 149.539 25.358 149.544 25.3325C149.55 25.3098 149.574 25.2985 149.617 25.2985C149.852 25.2985 150.072 25.2631 150.276 25.1922C150.48 25.1242 150.658 25.0307 150.811 24.9117C150.964 24.7955 151.085 24.6538 151.172 24.4866C151.263 24.3194 151.309 24.1394 151.309 23.9467V13.4044C151.309 13.0587 151.275 12.7866 151.207 12.5883C151.136 12.3899 151.034 12.2411 150.9 12.1419C150.764 12.0427 150.594 11.9804 150.39 11.9549C150.186 11.9322 149.95 11.9209 149.68 11.9209H149.213C149.136 11.9209 149.081 11.8769 149.047 11.7891C149.013 11.7041 148.996 11.6304 148.996 11.568C148.996 11.5312 149.003 11.4788 149.017 11.4108C149.029 11.3399 149.065 11.2988 149.128 11.2875C149.136 11.2875 149.159 11.2875 149.196 11.2875C149.235 11.2875 149.304 11.2846 149.4 11.279C149.496 11.2761 149.625 11.2733 149.787 11.2705C149.951 11.2676 150.165 11.262 150.429 11.2535C150.808 11.2478 151.214 11.2379 151.644 11.2237C152.078 11.2095 152.516 11.1954 152.958 11.1812C153.403 11.167 153.841 11.1557 154.271 11.1472C154.705 11.1359 155.112 11.1302 155.491 11.1302H156.954C157.509 11.1302 158.049 11.2237 158.573 11.4108C159.1 11.5978 159.568 11.8727 159.976 12.2354C160.384 12.5982 160.713 13.0502 160.962 13.5915C161.209 14.1299 161.332 14.752 161.332 15.4576C161.332 15.8997 161.267 16.3234 161.137 16.7287C161.006 17.1339 160.828 17.5066 160.601 17.8466C160.377 18.1839 160.118 18.49 159.823 18.7648C159.528 19.0369 159.221 19.2665 158.901 19.4535C158.578 19.6405 158.25 19.7822 157.919 19.8786C157.63 19.9551 157.356 19.9934 157.098 19.9934C157.059 19.9934 157.022 19.9934 156.988 19.9934L154.505 19.8701C154.5 19.8701 154.471 19.8701 154.42 19.8701C154.372 19.8701 154.338 19.8772 154.318 19.8913C154.298 19.9027 154.284 19.9154 154.276 19.9296C154.27 19.9438 154.267 19.9721 154.267 20.0146V23.917C154.267 24.1862 154.341 24.4086 154.488 24.5843C154.638 24.7629 154.833 24.9032 155.071 25.0052C155.309 25.11 155.576 25.1851 155.874 25.2305C156.172 25.2758 156.466 25.2985 156.758 25.2985C156.798 25.2985 156.822 25.3084 156.83 25.3283C156.836 25.3481 156.839 25.3651 156.839 25.3793V25.8341C156.839 25.8483 156.835 25.8667 156.826 25.8894C156.815 25.9092 156.792 25.9191 156.758 25.9191ZM154.267 18.3865L154.288 18.6968C154.294 18.7507 154.31 18.8003 154.335 18.8456C154.358 18.891 154.407 18.9165 154.484 18.9221C154.512 18.9221 154.563 18.9264 154.637 18.9349C154.708 18.9405 154.791 18.9476 154.888 18.9561C154.987 18.9618 155.093 18.9689 155.207 18.9774C155.32 18.9831 155.432 18.9859 155.542 18.9859C156.007 18.9859 156.414 18.8924 156.762 18.7053C157.111 18.5183 157.402 18.2576 157.634 17.9232C157.866 17.5859 158.039 17.1878 158.152 16.7287C158.266 16.2696 158.323 15.7623 158.323 15.2068C158.323 14.0676 158.094 13.2316 157.638 12.6988C157.182 12.166 156.512 11.8996 155.627 11.8996C155.531 11.8996 155.44 11.901 155.355 11.9039C155.273 11.9067 155.191 11.9095 155.109 11.9124C155.024 11.918 154.935 11.9223 154.841 11.9251C154.748 11.928 154.643 11.9322 154.526 11.9379C154.484 11.9379 154.43 11.9478 154.365 11.9676C154.3 11.9846 154.267 12.03 154.267 12.1037V18.3865Z" fill="white"/>
</g>
</g>
<g clip-path="url(#clip7_180_205)">
<g clip-path="url(#clip8_180_205)">
<path d="M54.1422 32.477C53.8583 32.477 53.6512 32.4102 53.521 32.2767C53.3924 32.1431 53.3281 31.9719 53.3281 31.7632V31.5503C53.3281 31.3416 53.3924 31.1704 53.521 31.0368C53.6512 30.9032 53.8583 30.8364 54.1422 30.8364C54.426 30.8364 54.6306 30.9032 54.7558 31.0368C54.8811 31.1704 54.9437 31.3416 54.9437 31.5503V31.7632C54.9437 31.9719 54.8811 32.1431 54.7558 32.2767C54.6306 32.4102 54.426 32.477 54.1422 32.477ZM53.4534 40.1541V33.6417H54.8184V40.1541H53.4534ZM58.1372 40.1541H56.7722V33.6417H58.1372V34.7188H58.1999C58.3418 34.3681 58.5564 34.0759 58.8436 33.8421C59.1325 33.6083 59.5274 33.4915 60.0283 33.4915C60.6963 33.4915 61.2156 33.7102 61.5863 34.1477C61.9586 34.5869 62.1448 35.2114 62.1448 36.0213V40.1541H60.7797V36.1966C60.7797 35.178 60.3706 34.6687 59.5524 34.6687C59.3771 34.6687 59.2034 34.6912 59.0314 34.7363C58.8611 34.7831 58.7092 34.8524 58.5756 34.9442C58.442 35.0361 58.3351 35.1529 58.255 35.2949C58.1765 35.4368 58.1372 35.6038 58.1372 35.7958V40.1541ZM67.0291 40.1541H65.8393C65.3634 40.1541 65.0044 40.0305 64.7623 39.7834C64.5202 39.5379 64.3991 39.1898 64.3991 38.7389V34.7564H63.3847V33.6417H63.9357C64.1612 33.6417 64.3173 33.5916 64.4041 33.4915C64.4926 33.3913 64.5369 33.2285 64.5369 33.003V31.8634H65.7642V33.6417H67.1293V34.7564H65.7642V39.0395H67.0291V40.1541ZM71.1093 40.3044C70.6418 40.3044 70.2243 40.2251 69.857 40.0664C69.4896 39.9078 69.1765 39.6799 68.9177 39.3826C68.6588 39.0871 68.461 38.7281 68.324 38.3056C68.1855 37.8848 68.1162 37.4156 68.1162 36.8979C68.1162 36.3803 68.1855 35.9102 68.324 35.4877C68.461 35.0669 68.6588 34.7079 68.9177 34.4107C69.1765 34.1151 69.4896 33.888 69.857 33.7294C70.2243 33.5708 70.6418 33.4915 71.1093 33.4915C71.5852 33.4915 72.0052 33.5749 72.3692 33.7419C72.7316 33.9089 73.0338 34.1402 73.2759 34.4357C73.5181 34.733 73.7001 35.0778 73.822 35.4702C73.9422 35.8626 74.0023 36.2843 74.0023 36.7351V37.2486H69.5313V37.4615C69.5313 37.9624 69.68 38.3732 69.9772 38.6938C70.2727 39.0161 70.696 39.1772 71.2471 39.1772C71.6478 39.1772 71.986 39.0896 72.2615 38.9142C72.537 38.7389 72.7708 38.501 72.9628 38.2004L73.7644 38.9894C73.5222 39.3901 73.1716 39.7091 72.7124 39.9462C72.2532 40.185 71.7188 40.3044 71.1093 40.3044ZM71.1093 34.556C70.8756 34.556 70.661 34.5977 70.4656 34.6812C70.2686 34.7647 70.1016 34.8816 69.9647 35.0319C69.8261 35.1822 69.7192 35.3617 69.6441 35.5704C69.5689 35.7791 69.5313 36.0087 69.5313 36.2592V36.3469H72.5621V36.2216C72.5621 35.7207 72.4327 35.3174 72.1738 35.0118C71.915 34.7079 71.5602 34.556 71.1093 34.556ZM76.8828 40.1541H75.5177V33.6417H76.8828V34.8941H76.9454C77.0372 34.5602 77.2293 34.2679 77.5215 34.0175C77.8137 33.767 78.2186 33.6417 78.7363 33.6417H79.0995V34.9567H78.561C78.0183 34.9567 77.6033 35.0444 77.3161 35.2197C77.0272 35.3951 76.8828 35.6539 76.8828 35.9962V40.1541ZM81.6794 40.1541H80.3143V33.6417H81.6794V34.7188H81.742C81.8839 34.3681 82.0985 34.0759 82.3857 33.8421C82.6746 33.6083 83.0695 33.4915 83.5704 33.4915C84.2384 33.4915 84.7577 33.7102 85.1284 34.1477C85.5008 34.5869 85.687 35.2114 85.687 36.0213V40.1541H84.3219V36.1966C84.3219 35.178 83.9128 34.6687 83.0945 34.6687C82.9192 34.6687 82.7456 34.6912 82.5736 34.7363C82.4032 34.7831 82.2513 34.8524 82.1177 34.9442C81.9841 35.0361 81.8772 35.1529 81.7971 35.2949C81.7186 35.4368 81.6794 35.6038 81.6794 35.7958V40.1541ZM90.1329 40.3044C89.6653 40.3044 89.2479 40.2251 88.8805 40.0664C88.5131 39.9078 88.2001 39.6799 87.9412 39.3826C87.6824 39.0871 87.4837 38.7281 87.3451 38.3056C87.2082 37.8848 87.1397 37.4156 87.1397 36.8979C87.1397 36.3803 87.2082 35.9102 87.3451 35.4877C87.4837 35.0669 87.6824 34.7079 87.9412 34.4107C88.2001 34.1151 88.5131 33.888 88.8805 33.7294C89.2479 33.5708 89.6653 33.4915 90.1329 33.4915C90.6088 33.4915 91.0279 33.5749 91.3903 33.7419C91.7543 33.9089 92.0574 34.1402 92.2995 34.4357C92.5416 34.733 92.7228 35.0778 92.843 35.4702C92.9649 35.8626 93.0259 36.2843 93.0259 36.7351V37.2486H88.5549V37.4615C88.5549 37.9624 88.7027 38.3732 88.9982 38.6938C89.2955 39.0161 89.7196 39.1772 90.2706 39.1772C90.6714 39.1772 91.0095 39.0896 91.2851 38.9142C91.5606 38.7389 91.7944 38.501 91.9864 38.2004L92.7879 38.9894C92.5458 39.3901 92.1951 39.7091 91.7359 39.9462C91.2767 40.185 90.7424 40.3044 90.1329 40.3044ZM90.1329 34.556C89.8991 34.556 89.6837 34.5977 89.4867 34.6812C89.2913 34.7647 89.1243 34.8816 88.9857 35.0319C88.8488 35.1822 88.7428 35.3617 88.6676 35.5704C88.5925 35.7791 88.5549 36.0087 88.5549 36.2592V36.3469H91.5856V36.2216C91.5856 35.7207 91.4562 35.3174 91.1974 35.0118C90.9386 34.7079 90.5837 34.556 90.1329 34.556ZM97.5319 40.1541H96.3422C95.8663 40.1541 95.5072 40.0305 95.2651 39.7834C95.023 39.5379 94.9019 39.1898 94.9019 38.7389V34.7564H93.8875V33.6417H94.4385C94.664 33.6417 94.8209 33.5916 94.9094 33.4915C94.9963 33.3913 95.0397 33.2285 95.0397 33.003V31.8634H96.267V33.6417H97.6321V34.7564H96.267V39.0395H97.5319V40.1541Z" fill="#DDC76D"/>
</g>
</g>
</g>
</g>
<g clip-path="url(#clip9_180_205)">
<g clip-path="url(#clip10_180_205)">
<path d="M24.6117 0.495605C10.7516 0.495605 -0.484375 11.7316 -0.484375 25.5917C-0.484375 39.4517 10.7516 50.6878 24.6117 50.6878C38.4718 50.6878 49.7078 39.4517 49.7078 25.5917C49.7078 11.7316 38.4718 0.495605 24.6117 0.495605ZM24.6117 7.60081C34.5493 7.60081 42.6026 15.6536 42.6026 25.5917C42.6026 35.5292 34.5493 43.5826 24.6117 43.5826C14.6742 43.5826 6.62083 35.5292 6.62083 25.5917C6.62083 15.6541 14.6742 7.60081 24.6117 7.60081ZM24.6117 10.5968C16.3275 10.5968 9.6168 17.3075 9.6168 25.5917C9.6168 33.8759 16.3275 40.5866 24.6117 40.5866C32.8959 40.5866 39.6066 33.8759 39.6066 25.5917C39.6066 17.3075 32.8959 10.5968 24.6117 10.5968ZM24.6117 15.4278C30.2222 15.4278 34.7756 19.9812 34.7756 25.5917C34.7756 31.2022 30.2222 35.7556 24.6117 35.7556C19.0012 35.7556 14.4478 31.2022 14.4478 25.5917C14.4478 19.9812 19.0012 15.4278 24.6117 15.4278Z" fill="#D6111E"/>
</g>
</g>
</g>
</g>
</g>
<defs>
<clipPath id="clip0_180_205">
<rect width="162.338" height="50" fill="white" transform="translate(-0.605469 0.591797)"/>
</clipPath>
<clipPath id="clip1_180_205">
<rect width="162.098" height="50.1922" fill="white" transform="translate(-0.484375 0.495605)"/>
</clipPath>
<clipPath id="clip2_180_205">
<rect width="162.098" height="50.1922" fill="white" transform="translate(-0.484375 0.495605)"/>
</clipPath>
<clipPath id="clip3_180_205">
<rect width="108.289" height="29.4249" fill="white" transform="translate(53.3242 10.8794)"/>
</clipPath>
<clipPath id="clip4_180_205">
<rect width="108.289" height="29.4249" fill="white" transform="translate(53.3242 10.8794)"/>
</clipPath>
<clipPath id="clip5_180_205">
<rect width="107.751" height="15.3203" fill="white" transform="translate(53.5938 10.8794)"/>
</clipPath>
<clipPath id="clip6_180_205">
<rect width="107.751" height="15.3203" fill="white" transform="translate(53.5938 10.8794)"/>
</clipPath>
<clipPath id="clip7_180_205">
<rect width="44.309" height="9.46795" fill="white" transform="translate(53.3242 30.8364)"/>
</clipPath>
<clipPath id="clip8_180_205">
<rect width="44.309" height="9.46795" fill="white" transform="translate(53.3242 30.8364)"/>
</clipPath>
<clipPath id="clip9_180_205">
<rect width="50.1922" height="50.1922" fill="white" transform="translate(-0.484375 0.495605)"/>
</clipPath>
<clipPath id="clip10_180_205">
<rect width="50.1922" height="50.1922" fill="white" transform="translate(-0.484375 0.495605)"/>
</clipPath>
</defs>
</svg>
