<svg width="800" height="800" viewBox="0 0 800 800" fill="none" xmlns="http://www.w3.org/2000/svg">
<path fill-rule="evenodd" clip-rule="evenodd" d="M38 176.885C38 161.484 50.4845 149 65.8846 149H735.115C750.515 149 763 161.484 763 176.885C763 192.285 750.515 204.769 735.115 204.769H65.8846C50.4845 204.769 38 192.285 38 176.885Z" fill="#D6111E"/>
<path fill-rule="evenodd" clip-rule="evenodd" d="M261.077 399.962C261.077 384.562 273.562 372.077 288.962 372.077H735.116C750.515 372.077 763 384.562 763 399.962C763 415.361 750.515 427.846 735.116 427.846H288.962C273.562 427.846 261.077 415.361 261.077 399.962Z" fill="#D6111E"/>
<path fill-rule="evenodd" clip-rule="evenodd" d="M38 623.038C38 607.639 50.4845 595.154 65.8846 595.154H735.115C750.515 595.154 763 607.639 763 623.038C763 638.438 750.515 650.923 735.115 650.923H65.8846C50.4845 650.923 38 638.438 38 623.038Z" fill="#D6111E"/>
</svg>
