<svg width="16" height="16" viewBox="0 0 16 16" fill="none" xmlns="http://www.w3.org/2000/svg">
<mask id="path-1-inside-1_1_21" fill="white">
<path d="M11.742 10.344C12.7103 9.02269 13.144 7.38449 12.9563 5.75715C12.7686 4.12981 11.9734 2.63334 10.7298 1.56713C9.48611 0.500922 7.88575 -0.0563951 6.24883 0.00667803C4.61192 0.0697512 3.05918 0.748563 1.90127 1.90731C0.743349 3.06605 0.0656481 4.61928 0.00374626 6.25624C-0.0581556 7.89319 0.500307 9.49316 1.56741 10.736C2.6345 11.9789 4.13154 12.7731 5.75902 12.9596C7.38649 13.1461 9.02438 12.7112 10.345 11.742H10.344C10.374 11.782 10.406 11.82 10.442 11.857L14.292 15.707C14.4795 15.8946 14.7339 16.0001 14.9991 16.0002C15.2644 16.0003 15.5189 15.895 15.7065 15.7075C15.8941 15.52 15.9996 15.2656 15.9997 15.0004C15.9998 14.7351 15.8945 14.4806 15.707 14.293L11.857 10.443C11.8212 10.4068 11.7828 10.3744 11.742 10.344ZM12 6.5C12 7.22227 11.8577 7.93747 11.5813 8.60476C11.3049 9.27205 10.8998 9.87837 10.3891 10.3891C9.87836 10.8998 9.27205 11.3049 8.60476 11.5813C7.93747 11.8577 7.22227 12 6.5 12C5.77773 12 5.06253 11.8577 4.39524 11.5813C3.72795 11.3049 3.12163 10.8998 2.61091 10.3891C2.10019 9.87837 1.69506 9.27205 1.41866 8.60476C1.14226 7.93747 0.999998 7.22227 0.999998 6.5C0.999998 5.04131 1.57946 3.64236 2.61091 2.61091C3.64236 1.57946 5.04131 1 6.5 1C7.95869 1 9.35763 1.57946 10.3891 2.61091C11.4205 3.64236 12 5.04131 12 6.5Z"/>
</mask>
<path d="M11.742 10.344L7.709 7.38851L4.77583 11.391L8.75601 14.3545L11.742 10.344ZM10.345 11.742L13.3034 15.7729L25.6082 6.742H10.345V11.742ZM10.344 11.742V6.742H0.343997L6.344 14.742L10.344 11.742ZM10.442 11.857L6.85837 15.3438L6.88225 15.3683L6.90646 15.3925L10.442 11.857ZM14.292 15.707L17.8288 12.1727L17.8275 12.1715L14.292 15.707ZM15.707 14.293L19.2438 10.7587L19.2425 10.7575L15.707 14.293ZM11.857 10.443L8.30001 13.9569L8.3107 13.9678L8.32146 13.9785L11.857 10.443ZM12 6.5L17 6.5L12 6.5ZM0.999998 6.5L-4 6.5L0.999998 6.5ZM6.5 1L6.5 6L6.5 1ZM15.775 13.2995C17.4881 10.9618 18.2554 8.06344 17.9234 5.1843L7.98923 6.33C8.03254 6.70554 7.93246 7.08359 7.709 7.38851L15.775 13.2995ZM17.9234 5.1843C17.5913 2.30516 16.1844 -0.342444 13.9841 -2.22881L7.47541 5.36307C7.76241 5.60912 7.94592 5.95446 7.98923 6.33L17.9234 5.1843ZM13.9841 -2.22881C11.7838 -4.11518 8.95239 -5.10121 6.05632 -4.98961L6.44135 5.00297C6.8191 4.98842 7.18841 5.11703 7.47541 5.36307L13.9841 -2.22881ZM6.05632 -4.98961C3.16024 -4.87802 0.413089 -3.67705 -1.63553 -1.62696L5.43806 5.44158C5.70528 5.17417 6.0636 5.01753 6.44135 5.00297L6.05632 -4.98961ZM-1.63553 -1.62696C-3.68415 0.423128 -4.88316 3.17114 -4.99268 6.06729L5.00018 6.44518C5.01446 6.06742 5.17085 5.70898 5.43806 5.44158L-1.63553 -1.62696ZM-4.99268 6.06729C-5.1022 8.96345 -4.11415 11.7942 -2.22621 13.9931L5.36102 7.47898C5.11477 7.19216 4.98589 6.82294 5.00018 6.44518L-4.99268 6.06729ZM-2.22621 13.9931C-0.338265 16.1921 2.31034 17.5971 5.18972 17.9271L6.32831 7.9921C5.95274 7.94906 5.60727 7.7658 5.36102 7.47898L-2.22621 13.9931ZM5.18972 17.9271C8.0691 18.2571 10.9669 17.4877 13.3034 15.7729L7.38662 7.71112C7.08186 7.93479 6.70388 8.03515 6.32831 7.9921L5.18972 17.9271ZM10.345 6.742H10.344V16.742H10.345V6.742ZM6.344 14.742C6.48869 14.9349 6.65835 15.1382 6.85837 15.3438L14.0256 8.37023C14.1536 8.5018 14.2593 8.62908 14.344 8.742L6.344 14.742ZM6.90646 15.3925L10.7565 19.2425L17.8275 12.1715L13.9775 8.32147L6.90646 15.3925ZM10.7552 19.2413C11.8801 20.3669 13.406 20.9996 14.9974 21.0002L15.0009 11.0002C16.0617 11.0006 17.0789 11.4223 17.8288 12.1727L10.7552 19.2413ZM14.9974 21.0002C16.5887 21.0008 18.1151 20.3692 19.2408 19.2443L12.1722 12.1707C12.9226 11.4209 13.9401 10.9998 15.0009 11.0002L14.9974 21.0002ZM19.2408 19.2443C20.3664 18.1194 20.9991 16.5935 20.9997 15.0021L10.9997 14.9986C11.0001 13.9378 11.4218 12.9206 12.1722 12.1707L19.2408 19.2443ZM20.9997 15.0021C21.0003 13.4108 20.3686 11.8844 19.2438 10.7587L12.1702 17.8273C11.4204 17.0769 10.9993 16.0594 10.9997 14.9986L20.9997 15.0021ZM19.2425 10.7575L15.3925 6.90747L8.32146 13.9785L12.1715 17.8285L19.2425 10.7575ZM15.414 6.92905C15.1673 6.67937 14.9293 6.48344 14.728 6.33353L8.75601 14.3545C8.63627 14.2653 8.47517 14.1343 8.30001 13.9569L15.414 6.92905ZM7 6.5C7 6.56566 6.98706 6.63068 6.96194 6.69134L16.2007 10.5182C16.7284 9.24426 17 7.87888 17 6.5L7 6.5ZM6.96194 6.69134C6.93681 6.75201 6.89998 6.80713 6.85355 6.85355L13.9246 13.9246C14.8996 12.9496 15.6731 11.7921 16.2007 10.5182L6.96194 6.69134ZM6.85355 6.85355C6.80712 6.89998 6.752 6.93681 6.69134 6.96194L10.5182 16.2007C11.7921 15.6731 12.9496 14.8996 13.9246 13.9246L6.85355 6.85355ZM6.69134 6.96194C6.63068 6.98707 6.56566 7 6.5 7V17C7.87888 17 9.24425 16.7284 10.5182 16.2007L6.69134 6.96194ZM6.5 7C6.43433 7 6.36932 6.98707 6.30866 6.96194L2.48182 16.2007C3.75574 16.7284 5.12112 17 6.5 17V7ZM6.30866 6.96194C6.24799 6.93681 6.19287 6.89998 6.14644 6.85355L-0.924624 13.9246C0.0503917 14.8996 1.2079 15.6731 2.48182 16.2007L6.30866 6.96194ZM6.14644 6.85355C6.10002 6.80713 6.06319 6.75201 6.03806 6.69134L-3.20074 10.5182C-2.67306 11.7921 -1.89964 12.9496 -0.924624 13.9246L6.14644 6.85355ZM6.03806 6.69134C6.01293 6.63068 6 6.56566 6 6.5L-4 6.5C-4 7.87888 -3.72841 9.24426 -3.20074 10.5182L6.03806 6.69134ZM6 6.5C6 6.36739 6.05268 6.24022 6.14644 6.14645L-0.924623 -0.92462C-2.89376 1.04451 -4 3.71523 -4 6.5L6 6.5ZM6.14644 6.14645C6.24021 6.05268 6.36739 6 6.5 6L6.5 -4C3.71522 -4 1.04451 -2.89375 -0.924623 -0.92462L6.14644 6.14645ZM6.5 6C6.63261 6 6.75978 6.05268 6.85355 6.14645L13.9246 -0.92462C11.9555 -2.89375 9.28477 -4 6.5 -4L6.5 6ZM6.85355 6.14645C6.94732 6.24022 7 6.36739 7 6.5L17 6.5C17 3.71523 15.8938 1.04451 13.9246 -0.92462L6.85355 6.14645Z" fill="#D6111E" mask="url(#path-1-inside-1_1_21)"/>
<circle cx="6.5" cy="6.5" r="5.25" stroke="#D6111E" stroke-width="0.5"/>
</svg>
